<svg width="437" height="210" viewBox="0 0 437 210" fill="none" xmlns="http://www.w3.org/2000/svg">
<path d="M430.735 127.26C430.735 131.74 429.615 136.033 427.375 140.14C425.135 144.153 421.822 147.513 417.435 150.22C413.142 152.927 407.962 154.467 401.895 154.84V166.18H394.335V154.84C385.842 154.093 378.935 151.387 373.615 146.72C368.295 141.96 365.588 135.94 365.495 128.66H379.075C379.448 132.58 380.895 135.987 383.415 138.88C386.028 141.773 389.668 143.593 394.335 144.34V109.34C388.082 107.753 383.042 106.12 379.215 104.44C375.388 102.76 372.122 100.147 369.415 96.6C366.708 93.0533 365.355 88.2933 365.355 82.32C365.355 74.76 367.968 68.5067 373.195 63.56C378.515 58.6133 385.562 55.86 394.335 55.3V43.68H401.895V55.3C409.828 55.9533 416.222 58.52 421.075 63C425.928 67.3867 428.728 73.1267 429.475 80.22H415.895C415.428 76.9533 413.982 74.0133 411.555 71.4C409.128 68.6933 405.908 66.92 401.895 66.08V100.24C408.055 101.827 413.048 103.46 416.875 105.14C420.795 106.727 424.062 109.293 426.675 112.84C429.382 116.387 430.735 121.193 430.735 127.26ZM378.375 81.62C378.375 86.1933 379.728 89.6933 382.435 92.12C385.142 94.5467 389.108 96.5533 394.335 98.14V65.8C389.482 66.2667 385.608 67.8533 382.715 70.56C379.822 73.1733 378.375 76.86 378.375 81.62ZM401.895 144.48C406.935 143.92 410.855 142.1 413.655 139.02C416.548 135.94 417.995 132.253 417.995 127.96C417.995 123.387 416.595 119.887 413.795 117.46C410.995 114.94 407.028 112.933 401.895 111.44V144.48Z" fill="#333333"/>
<line x1="372.957" y1="134.086" x2="0.958309" y2="130.983" stroke="#333333" stroke-width="10"/>
<path d="M49.7386 72.84V83.8H26.8586V95.64H43.9786V106.28H26.8586V129H13.1786V72.84H49.7386ZM70.6086 72.84V129H56.9286V72.84H70.6086ZM130.762 129H117.082L94.2024 94.36V129H80.5224V72.84H94.2024L117.082 107.64V72.84H130.762V129ZM175.639 119.08H154.679L151.319 129H136.999L157.319 72.84H173.159L193.479 129H178.999L175.639 119.08ZM172.119 108.52L165.159 87.96L158.279 108.52H172.119ZM249.903 129H236.223L213.343 94.36V129H199.663V72.84H213.343L236.223 107.64V72.84H249.903V129ZM285.579 117C288.193 117 290.513 116.387 292.539 115.16C294.619 113.933 296.219 112.147 297.339 109.8H312.379C310.939 115.187 308.246 119.587 304.299 123C300.406 126.36 295.659 128.413 290.059 129.16V132.28C292.833 132.28 295.259 133.027 297.339 134.52C299.419 136.067 300.459 138.36 300.459 141.4C300.459 144.44 299.366 146.733 297.179 148.28C294.993 149.88 292.379 150.68 289.339 150.68H277.019V143.16H287.499C288.566 143.16 289.366 143 289.899 142.68C290.433 142.36 290.699 141.827 290.699 141.08C290.699 140.333 290.433 139.8 289.899 139.48C289.366 139.213 288.566 139.08 287.499 139.08H281.819V129.16C277.019 128.627 272.779 127.107 269.099 124.6C265.419 122.04 262.566 118.707 260.539 114.6C258.513 110.493 257.499 105.907 257.499 100.84C257.499 95.2933 258.699 90.36 261.099 86.04C263.499 81.6667 266.833 78.28 271.099 75.88C275.419 73.4267 280.299 72.2 285.739 72.2C292.406 72.2 298.113 73.96 302.859 77.48C307.606 81 310.779 85.8 312.379 91.88H297.339C296.219 89.5333 294.619 87.7467 292.539 86.52C290.513 85.2933 288.193 84.68 285.579 84.68C281.366 84.68 277.953 86.1467 275.339 89.08C272.726 92.0133 271.419 95.9333 271.419 100.84C271.419 105.747 272.726 109.667 275.339 112.6C277.953 115.533 281.366 117 285.579 117ZM355.717 119.08H334.757L331.397 129H317.077L337.397 72.84H353.237L373.557 129H359.077L355.717 119.08ZM352.197 108.52L345.237 87.96L338.357 108.52H352.197Z" fill="white"/>
<path d="M14.4498 198.21C12.9898 198.21 11.6698 197.96 10.4898 197.46C9.32981 196.96 8.40981 196.24 7.72981 195.3C7.04981 194.36 6.69981 193.25 6.67981 191.97H11.1798C11.2398 192.83 11.5398 193.51 12.0798 194.01C12.6398 194.51 13.3998 194.76 14.3598 194.76C15.3398 194.76 16.1098 194.53 16.6698 194.07C17.2298 193.59 17.5098 192.97 17.5098 192.21C17.5098 191.59 17.3198 191.08 16.9398 190.68C16.5598 190.28 16.0798 189.97 15.4998 189.75C14.9398 189.51 14.1598 189.25 13.1598 188.97C11.7998 188.57 10.6898 188.18 9.82981 187.8C8.98981 187.4 8.25981 186.81 7.63981 186.03C7.03981 185.23 6.73981 184.17 6.73981 182.85C6.73981 181.61 7.04981 180.53 7.66981 179.61C8.28981 178.69 9.15981 177.99 10.2798 177.51C11.3998 177.01 12.6798 176.76 14.1198 176.76C16.2798 176.76 18.0298 177.29 19.3698 178.35C20.7298 179.39 21.4798 180.85 21.6198 182.73H16.9998C16.9598 182.01 16.6498 181.42 16.0698 180.96C15.5098 180.48 14.7598 180.24 13.8198 180.24C12.9998 180.24 12.3398 180.45 11.8398 180.87C11.3598 181.29 11.1198 181.9 11.1198 182.7C11.1198 183.26 11.2998 183.73 11.6598 184.11C12.0398 184.47 12.4998 184.77 13.0398 185.01C13.5998 185.23 14.3798 185.49 15.3798 185.79C16.7398 186.19 17.8498 186.59 18.7098 186.99C19.5698 187.39 20.3098 187.99 20.9298 188.79C21.5498 189.59 21.8598 190.64 21.8598 191.94C21.8598 193.06 21.5698 194.1 20.9898 195.06C20.4098 196.02 19.5598 196.79 18.4398 197.37C17.3198 197.93 15.9898 198.21 14.4498 198.21ZM30.6011 180.45V185.7H37.6511V189.03H30.6011V194.58H38.5511V198H26.4011V177.03H38.5511V180.45H30.6011ZM47.4079 177.06V190.02C47.4079 191.44 47.7779 192.53 48.5179 193.29C49.2579 194.03 50.2979 194.4 51.6379 194.4C52.9979 194.4 54.0479 194.03 54.7879 193.29C55.5279 192.53 55.8979 191.44 55.8979 190.02V177.06H60.1279V189.99C60.1279 191.77 59.7379 193.28 58.9579 194.52C58.1979 195.74 57.1679 196.66 55.8679 197.28C54.5879 197.9 53.1579 198.21 51.5779 198.21C50.0179 198.21 48.5979 197.9 47.3179 197.28C46.0579 196.66 45.0579 195.74 44.3179 194.52C43.5779 193.28 43.2079 191.77 43.2079 189.99V177.06H47.4079ZM72.1143 187.5C72.1143 185.44 72.5743 183.6 73.4943 181.98C74.4343 180.34 75.7043 179.07 77.3043 178.17C78.9243 177.25 80.7343 176.79 82.7343 176.79C85.0743 176.79 87.1243 177.39 88.8843 178.59C90.6443 179.79 91.8743 181.45 92.5743 183.57H87.7443C87.2643 182.57 86.5843 181.82 85.7043 181.32C84.8443 180.82 83.8443 180.57 82.7043 180.57C81.4843 180.57 80.3943 180.86 79.4343 181.44C78.4943 182 77.7543 182.8 77.2143 183.84C76.6943 184.88 76.4343 186.1 76.4343 187.5C76.4343 188.88 76.6943 190.1 77.2143 191.16C77.7543 192.2 78.4943 193.01 79.4343 193.59C80.3943 194.15 81.4843 194.43 82.7043 194.43C83.8443 194.43 84.8443 194.18 85.7043 193.68C86.5843 193.16 87.2643 192.4 87.7443 191.4H92.5743C91.8743 193.54 90.6443 195.21 88.8843 196.41C87.1443 197.59 85.0943 198.18 82.7343 198.18C80.7343 198.18 78.9243 197.73 77.3043 196.83C75.7043 195.91 74.4343 194.64 73.4943 193.02C72.5743 191.4 72.1143 189.56 72.1143 187.5ZM106.782 198.21C104.822 198.21 103.022 197.75 101.382 196.83C99.7416 195.91 98.4416 194.64 97.4816 193.02C96.5216 191.38 96.0416 189.53 96.0416 187.47C96.0416 185.43 96.5216 183.6 97.4816 181.98C98.4416 180.34 99.7416 179.06 101.382 178.14C103.022 177.22 104.822 176.76 106.782 176.76C108.762 176.76 110.562 177.22 112.182 178.14C113.822 179.06 115.112 180.34 116.052 181.98C117.012 183.6 117.492 185.43 117.492 187.47C117.492 189.53 117.012 191.38 116.052 193.02C115.112 194.64 113.822 195.91 112.182 196.83C110.542 197.75 108.742 198.21 106.782 198.21ZM106.782 194.46C108.042 194.46 109.152 194.18 110.112 193.62C111.072 193.04 111.822 192.22 112.362 191.16C112.902 190.1 113.172 188.87 113.172 187.47C113.172 186.07 112.902 184.85 112.362 183.81C111.822 182.75 111.072 181.94 110.112 181.38C109.152 180.82 108.042 180.54 106.782 180.54C105.522 180.54 104.402 180.82 103.422 181.38C102.462 181.94 101.712 182.75 101.172 183.81C100.632 184.85 100.362 186.07 100.362 187.47C100.362 188.87 100.632 190.1 101.172 191.16C101.712 192.22 102.462 193.04 103.422 193.62C104.402 194.18 105.522 194.46 106.782 194.46ZM139.426 198H135.226L125.716 183.63V198H121.516V177.03H125.716L135.226 191.43V177.03H139.426V198ZM158.727 177.06V180.45H153.147V198H148.947V180.45H143.367V177.06H158.727ZM173.491 198L168.871 189.84H166.891V198H162.691V177.06H170.551C172.171 177.06 173.551 177.35 174.691 177.93C175.831 178.49 176.681 179.26 177.241 180.24C177.821 181.2 178.111 182.28 178.111 183.48C178.111 184.86 177.711 186.11 176.911 187.23C176.111 188.33 174.921 189.09 173.341 189.51L178.351 198H173.491ZM166.891 186.69H170.401C171.541 186.69 172.391 186.42 172.951 185.88C173.511 185.32 173.791 184.55 173.791 183.57C173.791 182.61 173.511 181.87 172.951 181.35C172.391 180.81 171.541 180.54 170.401 180.54H166.891V186.69ZM192.53 198.21C190.57 198.21 188.77 197.75 187.13 196.83C185.49 195.91 184.19 194.64 183.23 193.02C182.27 191.38 181.79 189.53 181.79 187.47C181.79 185.43 182.27 183.6 183.23 181.98C184.19 180.34 185.49 179.06 187.13 178.14C188.77 177.22 190.57 176.76 192.53 176.76C194.51 176.76 196.31 177.22 197.93 178.14C199.57 179.06 200.86 180.34 201.8 181.98C202.76 183.6 203.24 185.43 203.24 187.47C203.24 189.53 202.76 191.38 201.8 193.02C200.86 194.64 199.57 195.91 197.93 196.83C196.29 197.75 194.49 198.21 192.53 198.21ZM192.53 194.46C193.79 194.46 194.9 194.18 195.86 193.62C196.82 193.04 197.57 192.22 198.11 191.16C198.65 190.1 198.92 188.87 198.92 187.47C198.92 186.07 198.65 184.85 198.11 183.81C197.57 182.75 196.82 181.94 195.86 181.38C194.9 180.82 193.79 180.54 192.53 180.54C191.27 180.54 190.15 180.82 189.17 181.38C188.21 181.94 187.46 182.75 186.92 183.81C186.38 184.85 186.11 186.07 186.11 187.47C186.11 188.87 186.38 190.1 186.92 191.16C187.46 192.22 188.21 193.04 189.17 193.62C190.15 194.18 191.27 194.46 192.53 194.46ZM211.465 194.67H218.365V198H207.265V177.06H211.465V194.67ZM226.134 180.45V185.7H233.184V189.03H226.134V194.58H234.084V198H221.934V177.03H234.084V180.45H226.134ZM259.779 177.06V180.45H251.049V185.82H257.739V189.15H251.049V198H246.849V177.06H259.779ZM267.858 177.06V198H263.658V177.06H267.858ZM290.817 198H286.617L277.107 183.63V198H272.907V177.03H277.107L286.617 191.43V177.03H290.817V198ZM308.708 194.01H300.368L298.988 198H294.578L302.108 177.03H306.998L314.528 198H310.088L308.708 194.01ZM307.568 190.65L304.538 181.89L301.508 190.65H307.568ZM336.152 198H331.952L322.442 183.63V198H318.242V177.03H322.442L331.952 191.43V177.03H336.152V198ZM340.183 187.5C340.183 185.44 340.643 183.6 341.563 181.98C342.503 180.34 343.773 179.07 345.373 178.17C346.993 177.25 348.803 176.79 350.803 176.79C353.143 176.79 355.193 177.39 356.953 178.59C358.713 179.79 359.943 181.45 360.643 183.57H355.813C355.333 182.57 354.653 181.82 353.773 181.32C352.913 180.82 351.913 180.57 350.773 180.57C349.553 180.57 348.463 180.86 347.503 181.44C346.563 182 345.823 182.8 345.283 183.84C344.763 184.88 344.503 186.1 344.503 187.5C344.503 188.88 344.763 190.1 345.283 191.16C345.823 192.2 346.563 193.01 347.503 193.59C348.463 194.15 349.553 194.43 350.773 194.43C351.913 194.43 352.913 194.18 353.773 193.68C354.653 193.16 355.333 192.4 355.813 191.4H360.643C359.943 193.54 358.713 195.21 356.953 196.41C355.213 197.59 353.163 198.18 350.803 198.18C348.803 198.18 346.993 197.73 345.373 196.83C343.773 195.91 342.503 194.64 341.563 193.02C340.643 191.4 340.183 189.56 340.183 187.5ZM369.33 180.45V185.7H376.38V189.03H369.33V194.58H377.28V198H365.13V177.03H377.28V180.45H369.33ZM386.197 177.06V198H381.997V177.06H386.197ZM402.047 198L397.427 189.84H395.447V198H391.247V177.06H399.107C400.727 177.06 402.107 177.35 403.247 177.93C404.387 178.49 405.237 179.26 405.797 180.24C406.377 181.2 406.667 182.28 406.667 183.48C406.667 184.86 406.267 186.11 405.467 187.23C404.667 188.33 403.477 189.09 401.897 189.51L406.907 198H402.047ZM395.447 186.69H398.957C400.097 186.69 400.947 186.42 401.507 185.88C402.067 185.32 402.347 184.55 402.347 183.57C402.347 182.61 402.067 181.87 401.507 181.35C400.947 180.81 400.097 180.54 398.957 180.54H395.447V186.69ZM421.086 198.21C419.126 198.21 417.326 197.75 415.686 196.83C414.046 195.91 412.746 194.64 411.786 193.02C410.826 191.38 410.346 189.53 410.346 187.47C410.346 185.43 410.826 183.6 411.786 181.98C412.746 180.34 414.046 179.06 415.686 178.14C417.326 177.22 419.126 176.76 421.086 176.76C423.066 176.76 424.866 177.22 426.486 178.14C428.126 179.06 429.416 180.34 430.356 181.98C431.316 183.6 431.796 185.43 431.796 187.47C431.796 189.53 431.316 191.38 430.356 193.02C429.416 194.64 428.126 195.91 426.486 196.83C424.846 197.75 423.046 198.21 421.086 198.21ZM421.086 194.46C422.346 194.46 423.456 194.18 424.416 193.62C425.376 193.04 426.126 192.22 426.666 191.16C427.206 190.1 427.476 188.87 427.476 187.47C427.476 186.07 427.206 184.85 426.666 183.81C426.126 182.75 425.376 181.94 424.416 181.38C423.456 180.82 422.346 180.54 421.086 180.54C419.826 180.54 418.706 180.82 417.726 181.38C416.766 181.94 416.016 182.75 415.476 183.81C414.936 184.85 414.666 186.07 414.666 187.47C414.666 188.87 414.936 190.1 415.476 191.16C416.016 192.22 416.766 193.04 417.726 193.62C418.706 194.18 419.826 194.46 421.086 194.46Z" fill="white"/>
</svg>
